<svg width="456" height="124" viewBox="0 0 456 124" fill="none" xmlns="http://www.w3.org/2000/svg">
<path d="M69.7431 72.8433C76.6522 72.8433 86.297 63.7512 87.8169 54.3768C95.0046 54.3768 98.8866 58.1416 98.8866 64.4163C98.8803 74.2425 88.5705 89.785 72.4852 89.785C50.7257 89.785 41.2645 72.3476 41.2645 52.7641C41.3022 47.6526 41.9053 42.5606 43.063 37.5793C18.3651 35.6091 0 28.2049 0 18.6422C0 13.6726 5.01558 8.14459 16.7439 2.51616C17.3265 18.2532 29.0422 28.1233 44.6715 31.7815C50.4407 14.4381 63.309 0 80.9078 0C93.966 0 100.59 6.18688 100.59 13.4969C100.59 23.5365 88.1969 35.8098 62.8403 37.7738C59.6233 44.3372 57.4448 51.9296 57.4448 58.3989C57.4448 66.5685 60.8518 72.8433 69.7431 72.8433ZM65.4874 33.187C78.153 32.2521 82.586 28.3116 82.586 25.5005C82.586 23.9067 81.0725 22.5953 78.894 22.5953C74.2837 22.5953 69.3631 27.0001 65.4874 33.187Z" fill="white"/>
<path d="M103.231 37.3095C98.0253 36.5565 96.9867 34.969 96.9867 33.8396C96.9823 33.4045 97.1152 32.979 97.3666 32.6223C99.7351 33.187 101.907 33.5572 103.896 33.8396C108.246 12.6498 116.194 0.583549 126.225 0.583549C135.021 0.583549 139.663 6.95867 139.663 14.457C139.663 24.2079 131.811 35.7346 114.782 37.5166C114.402 40.9865 114.149 44.5443 114.022 48.1083C118.455 42.4611 124.338 39.8633 127.644 39.8633C135.781 39.8633 137.675 45.2031 137.675 52.4128C137.675 58.882 136.161 66.7568 136.161 73.5021C136.161 81.0945 138.15 87.3065 146.566 88.1285C146.566 88.1285 140.037 93.6565 135.021 93.6565C125.364 93.644 123.401 86.152 123.401 77.2356C123.401 71.4189 124.256 65.1442 124.256 59.9864C124.256 53.9877 123.122 49.677 118.392 49.677C116.878 49.677 115.269 50.6119 113.851 52.4881V56.529C113.851 68.8086 115.459 82.0295 118.582 85.4931C115.57 86.0034 112.523 86.2845 109.469 86.3339C102.845 86.3339 100.197 83.8993 100.197 76.4889C100.204 61.4923 101.236 48.3718 103.231 37.3095ZM115.263 32.9172C122.457 30.4763 124.629 24.3836 124.629 19.414C124.629 15.4735 123.211 12.2922 121.887 12.2922C119.215 12.2796 116.758 21.2776 115.244 32.9047L115.263 32.9172Z" fill="white"/>
<path d="M167.464 46.3075C168.948 45.9226 170.472 45.712 172.005 45.68C174.272 45.68 175.976 46.3075 175.976 48.5852C175.976 55.3305 175.786 60.8648 175.786 65.5269C175.786 78.4591 177.109 84.3511 186.475 88.1159C186.475 88.1159 179.756 93.5561 174.443 93.5561C166.59 93.5561 165.267 84.1817 164.507 73.4017H164.127C158.358 85.1229 153.532 87.0869 149.277 87.0869C142.184 87.0869 138.872 79.5572 138.872 70.4024C138.872 56.3407 146.535 38.5268 159.403 38.5268C164.336 38.5268 166.514 43.1199 167.464 46.3075ZM162.259 53.2473C162 52.1383 161.686 51.043 161.315 49.9656C156.11 54.5587 153.165 66.1795 153.165 72.2723C153.165 74.6127 153.64 76.2128 154.584 76.2128C157.041 76.2128 162.816 70.0259 162.816 59.271C162.807 57.2509 162.62 55.2354 162.259 53.2473Z" fill="white"/>
<path d="M209.463 34.8749C209.463 37.3095 207.855 39.2672 202.934 39.2672H195.652C195.272 45.36 195.018 52.0175 195.018 58.3926C195.018 68.702 195.867 78.4717 198.33 84.0813C198.33 84.0813 190.953 88.1097 185.937 88.1097C183.29 88.1097 181.302 87.0806 181.302 83.7174C181.302 74.6253 183.201 55.5941 183.759 39.286C179.028 39.286 175.431 39.1919 175.431 39.1919C174.012 39.1919 171.27 37.1275 171.27 34.3165C171.292 33.5653 171.487 32.829 171.84 32.1642C175.868 31.9904 179.883 31.6155 183.873 31.0411C183.778 21.949 183.024 14.5448 180.846 11.8216C184.538 10.6043 187.66 9.93916 190.212 9.93916C194.942 9.93916 197.501 12.2796 197.501 17.6257C197.501 18.843 197.026 22.9655 196.557 28.5939C199.44 28.0388 202.26 27.198 204.974 26.084C205.581 26.0589 209.463 31.0285 209.463 34.8749Z" fill="white"/>
<path d="M234.719 94.6793C228.57 94.6793 225.448 86.5222 224.124 76.5893C221.477 83.5229 217.975 87.6516 214.663 87.6516C203.897 87.6516 201.421 74.8073 201.421 63.1802C201.48 57.3382 201.986 51.5089 202.934 45.7427C202.934 45.7427 203.783 42.4611 211.167 42.4611C213.389 42.4785 215.606 42.6884 217.791 43.0885C216.37 48.6691 215.609 54.3946 215.524 60.1495C215.524 68.0243 217.424 72.699 219.875 72.699C221.008 72.699 222.332 71.6699 223.567 69.3232C223.472 67.6353 223.472 65.8595 223.472 64.1653C223.472 55.7258 224.415 47.7632 225.65 43.5403C225.84 42.1348 228.582 41.3818 231.704 41.3818C235.111 41.3818 238.797 42.2289 240.026 43.8917C238.702 45.4855 236.144 56.0772 236.144 66.669C236.144 76.9783 238.512 87.1998 246.738 89.1638C246.732 89.2391 243.046 94.6793 234.719 94.6793Z" fill="white"/>
<path d="M245.314 29.3406C251.463 29.3406 257.523 33.369 257.523 43.214C257.523 45.2784 257.428 47.4306 257.333 49.4887C260.075 36.1801 265.186 24.7412 273.418 24.7412C279.473 24.7412 280.796 28.5814 280.796 31.8693C280.796 33.329 280.582 34.7809 280.163 36.1801C259.727 37.3974 256.985 60.275 256.985 72.1782C256.985 77.6121 258.783 81.6467 261.241 85.4868C258.24 85.9979 255.204 86.2811 252.159 86.3339C245.535 86.3339 242.888 83.8993 242.888 76.4889C242.888 68.4259 245.067 58.5871 245.067 51.1829C245.067 44.4313 243.268 39.5559 236.555 39.5559C235.186 39.5884 233.823 39.746 232.483 40.0265C232.819 33.369 239.164 29.3406 245.314 29.3406Z" fill="white"/>
<path d="M285.799 85.7755C283.264 86.1713 280.703 86.3811 278.136 86.4029C271.804 86.4029 269.904 83.9684 269.904 76.4638C269.904 61.4672 270.942 48.3405 272.931 37.2844C267.725 36.5314 266.687 34.9439 266.687 33.8145C266.682 33.3794 266.815 32.9537 267.067 32.5972C269.435 33.1619 271.607 33.5321 273.596 33.8145C277.946 12.6247 285.894 0.558449 295.925 0.558449C304.722 0.558449 309.357 6.93357 309.357 14.4319C309.357 24.1828 301.504 35.7095 284.476 37.4915C284.096 41.2563 283.842 45.2721 283.621 49.3005C288.915 41.7081 294.975 40.679 298.661 40.679C305.754 40.679 308.876 47.8008 308.876 56.3345C308.876 69.6432 301.403 86.5159 289.668 86.5159C288.338 86.5719 287.013 86.3184 285.799 85.7755ZM283.526 61.3041C283.621 68.4259 283.906 75.5539 284.849 80.3353C290.713 79.9588 293.177 68.8086 293.177 60.4632C293.177 55.4937 292.328 51.5594 290.808 51.5594C288.921 51.5594 285.229 55.0293 283.526 61.3041ZM284.944 32.9047C292.138 30.4638 294.31 24.371 294.31 19.4014C294.31 15.4609 292.892 12.2796 291.568 12.2796C288.826 12.2796 286.464 21.2776 284.944 32.9047Z" fill="white"/>
<path d="M338.083 46.3075C339.566 45.9229 341.09 45.7123 342.623 45.68C344.897 45.68 346.594 46.3075 346.594 48.5852C346.594 55.3305 346.404 60.8648 346.404 65.5269C346.404 78.4591 347.728 84.3511 357.094 88.1159C357.094 88.1159 350.375 93.5561 345.061 93.5561C337.209 93.5561 335.885 84.1817 335.125 73.4017H334.745C328.976 85.1229 324.151 87.0869 319.889 87.0869C312.796 87.0869 309.484 79.5572 309.484 70.4024C309.484 56.3407 317.146 38.5268 330.015 38.5268C334.986 38.5268 337.164 43.1199 338.083 46.3075ZM332.877 53.2473C332.592 52.1241 332.307 51.001 331.934 49.9656C326.728 54.5587 323.796 66.1795 323.796 72.2785C323.796 74.619 324.265 76.2191 325.214 76.2191C327.678 76.2191 333.447 70.0322 333.447 59.2773C333.444 57.2557 333.264 55.2381 332.909 53.2473H332.877Z" fill="white"/>
<path d="M331.579 29.9053C331.579 25.0299 340.381 23.7185 351.73 23.7185H354.472C354.092 18.0712 353.243 13.7793 351.73 11.7965C355.422 10.5792 358.544 9.91406 361.096 9.91406C365.827 9.91406 368.379 12.2545 368.379 17.6006C368.379 18.4414 368.094 20.8823 367.815 24.2518C377.656 24.8165 387.402 25.6573 394.21 25.6573C415.108 25.6573 435.272 22.1874 446.342 8.03165C451.731 11.031 455.138 17.312 455.138 23.2165C455.138 30.3446 450.122 37.0899 437.356 37.0899C413.988 37.0899 387.96 31.0913 367.252 30.4324C366.58 38.3323 365.947 48.6542 365.947 58.4114C365.947 68.7208 366.802 78.4905 369.259 84.1001C369.259 84.1001 361.881 88.1285 356.866 88.1285C354.219 88.1285 352.23 87.0994 352.23 83.7362C352.23 73.2386 354.763 49.5201 354.763 31.9007V30.652C346.531 31.2795 339.812 33.2749 335.765 37.0271C332.902 34.0278 331.579 31.7815 331.579 29.9053Z" fill="white"/>
<path d="M385.218 68.1498C385.313 76.3069 389.1 79.9588 393.07 79.9588C396.382 79.9588 399.789 77.4489 401.398 72.9311C406.129 73.3954 408.396 75.8363 408.396 78.6474C408.396 83.3346 400.353 87.5512 391.747 87.5512C381.906 87.5512 371.311 82.0232 371.311 65.4265C371.311 52.0237 382.476 39.8382 393.83 39.8382C396.7 39.8242 399.517 40.6067 401.962 42.0971C402.81 41.5474 403.787 41.2233 404.799 41.1559C407.731 41.1559 409.814 45.8431 409.814 51.3774C409.814 59.4405 405.464 69.3733 393.26 69.3733C390.535 69.339 387.828 68.9271 385.218 68.1498ZM396.192 51.5594C390.708 52.5947 386.351 58.7753 385.427 65.1505C394.698 64.523 397.25 59.9989 397.25 55.9643C397.236 54.4358 396.875 52.9302 396.192 51.5594Z" fill="white"/>
<path d="M309.205 104.079C340.166 104.079 365.44 101.933 380.405 95.2127C399.498 98.0739 409.821 103.37 409.821 108.515C409.821 116.233 389.695 117.168 339.647 117.168C293.753 117.168 218.906 108.609 155.958 108.609C121.387 108.609 88.8807 116.258 69.2744 123.982C49.6427 121.121 39.8649 117.262 39.8649 112.11C39.8649 104.386 62.0297 96.8064 112.616 96.8064C176.596 96.7813 251.957 104.079 309.205 104.079Z" fill="white"/>
</svg>
