<svg width="652" height="131" viewBox="0 0 652 131" fill="none" xmlns="http://www.w3.org/2000/svg">
<path d="M272.327 50.229C281.85 50.229 285.024 53.7207 285.871 50.229H287.67L289.257 67.5817L287.564 67.7933C285.13 57.1066 281.004 52.0277 272.327 52.0277C266.19 52.0277 264.286 57.7414 266.614 62.2912C270.634 70.1211 296.134 71.9198 296.134 85.8867C296.134 96.5734 286.294 103.98 270.317 103.98C256.138 103.98 248.52 95.5153 250.636 87.5796C251.694 83.6647 254.763 81.8659 257.937 81.8659C262.91 81.8659 268.201 85.9925 266.402 92.341C262.804 90.6481 260.371 94.4572 260.371 96.9966C260.477 99.536 262.804 102.287 269.259 102.287C276.877 102.287 279.628 97.1024 279.628 93.1875C279.628 80.9136 252.753 83.0298 251.165 66.4178C250.319 57.6356 256.244 50.229 272.327 50.229Z" fill="white"/>
<path d="M180.139 50.229C187.863 50.229 196.011 52.2393 199.82 59.5402C202.359 54.2497 207.861 50.3348 215.479 50.3348C231.774 50.3348 236.853 59.9634 238.334 69.4862L239.816 82.1833C241.932 98.5838 242.249 101.441 247.751 101.441V103.134H230.928H230.822H230.716H213.892V101.441C219.394 101.441 222.251 96.8908 221.511 88.8493L219.394 67.5817C218.548 60.8099 215.903 53.5091 209.025 54.4613C202.782 55.3078 201.936 61.5505 201.936 73.4012V88.8493C201.936 97.4199 203.84 101.441 209.343 101.441V103.134H192.519H192.413H175.484V101.441C181.092 101.441 182.89 97.4199 182.89 88.8493V66.5236C182.89 58.0588 178.658 54.1439 173.156 54.1439C167.76 54.1439 163.633 58.0588 163.633 67.8991V82.395V88.8493C163.633 97.4199 165.538 101.441 171.145 101.441V103.134H154.216H154.11H137.181V101.441C142.789 101.441 144.587 97.4199 144.587 88.8493V85.675V82.395V75.6232C144.587 66.5236 142.683 61.7622 136.863 61.3389V59.646C151.465 59.646 161.94 50.229 161.94 50.229H163.633V56.6833C166.278 54.0381 170.511 50.229 180.139 50.229Z" fill="white"/>
<path d="M94.3205 50.229C116.54 50.229 120.455 57.6356 122.36 69.4862L122.466 70.9676L124.37 87.1564C126.91 103.134 134.316 98.3721 134.316 98.3721V99.6418C133.047 102.922 112.625 108.741 106.912 97.2082C106.912 97.314 101.516 103.98 89.6649 103.98C80.3537 103.98 71.0425 100.488 71.0425 90.3306C71.0425 67.6875 104.478 81.1252 102.785 66.4178L102.679 65.1481C101.939 60.5983 101.621 52.0277 94.3205 52.0277C87.8661 52.0277 86.1732 54.7788 86.0674 57.2124C86.0674 59.7518 87.2313 61.9738 92.0985 61.9738C94.9553 72.4489 78.9782 76.7871 76.3329 66.7352C74.2168 58.7995 80.1421 50.229 94.3205 50.229ZM103.42 71.814C101.41 76.6813 89.03 77.3161 89.03 88.4261C89.03 102.075 106.912 101.864 105.748 92.341L103.42 71.814Z" fill="white"/>
<path d="M40.1546 20.1792C46.8206 20.1792 48.3019 20.9198 53.5923 21.8721C56.8724 22.6128 60.1525 24.0941 60.1525 21.1315H61.8455L64.3849 44.9385L62.6919 45.0443C60.4699 35.7331 55.8143 21.8721 41.8475 21.8721C30.1027 21.8721 21.2147 39.3306 20.1566 58.2705C19.945 61.6564 20.0508 65.2539 20.3683 68.7456C22.0612 86.4157 30.6318 102.499 41.8475 102.499C56.1318 102.499 59.4118 89.2725 62.6919 79.2207L64.3849 79.4323L61.8455 103.134H60.1525C60.1525 100.277 56.8724 101.758 53.5923 102.499C48.3019 103.451 46.8206 104.086 40.1546 104.086C18.3579 104.086 1.95747 87.4738 0.158714 66.1003C-0.0529046 63.5609 -0.0529046 61.0215 0.158714 58.2705C1.95747 36.897 18.3579 20.1792 40.1546 20.1792Z" fill="white"/>
<path d="M627.332 50.229C636.855 50.229 640.029 53.7207 640.875 50.229H642.674L644.261 67.5817L642.568 67.7933C640.135 57.1066 636.008 52.0277 627.332 52.0277C621.195 52.0277 619.29 57.7414 621.618 62.2912C625.639 70.1211 651.139 71.9198 651.139 85.8867C651.139 96.5734 641.299 103.98 625.321 103.98C611.143 103.98 603.525 95.5153 605.641 87.5796C606.699 83.6647 609.768 81.8659 612.942 81.8659C617.915 81.8659 623.205 85.9925 621.407 92.341C617.809 90.6481 615.375 94.4572 615.375 96.9966C615.481 99.536 617.809 102.287 624.263 102.287C631.882 102.287 634.633 97.1024 634.633 93.1875C634.633 80.9136 607.757 83.0298 606.17 66.4178C605.324 57.6356 611.249 50.229 627.332 50.229Z" fill="white"/>
<path d="M555.28 50.229H556.973V56.2601C559.935 52.6626 564.591 50.3348 570.516 50.3348C586.811 50.3348 591.89 59.9634 593.371 69.4862L594.853 82.1833C596.969 98.5838 597.286 101.441 602.788 101.441V103.134H585.965H585.859H568.929V101.441C574.537 101.441 577.288 96.8908 576.548 88.8493L574.431 67.5817C573.585 60.8099 570.94 53.5091 564.062 54.4613C557.819 55.3078 556.973 61.5505 556.973 73.4012V82.395V88.8493C556.973 97.4199 558.877 101.441 564.485 101.441V103.134H547.556H547.45H530.521V101.441C536.128 101.441 537.927 97.4199 537.927 88.8493V85.675V82.395V75.6232C537.927 66.5236 536.023 61.7622 530.203 61.3389V59.646C544.805 59.646 555.28 50.229 555.28 50.229Z" fill="white"/>
<path d="M504.187 50.229C514.344 50.229 520.164 54.0381 523.655 58.5879C528.417 64.7248 527.888 75.0941 516.778 76.3638L496.886 78.6916C496.991 79.2207 497.203 79.8555 497.415 80.4904C502.599 96.3618 521.01 99.007 529.157 85.675L530.321 86.8389C520.375 111.704 484.823 108.212 477.946 85.146C477.417 83.453 477.099 81.7601 476.888 79.8555C475.512 64.09 483.025 50.229 504.187 50.229ZM504.081 52.0277C496.568 52.0277 494.558 63.9842 496.462 76.4696C496.462 76.6813 496.462 76.7871 496.462 76.9987L500.166 76.5755H500.272C510.958 75.3057 512.334 69.2746 512.016 65.4655C511.382 58.5879 509.583 52.0277 504.081 52.0277Z" fill="white"/>
<path d="M446.735 50.229C456.893 50.229 462.713 54.0381 466.204 58.5879C470.966 64.7248 470.437 75.0941 459.327 76.3638L439.434 78.6916C439.54 79.2207 439.752 79.8555 439.964 80.4904C445.148 96.3618 463.559 99.007 471.706 85.675L472.87 86.8389C462.924 111.704 427.372 108.212 420.495 85.146C419.966 83.453 419.648 81.7601 419.437 79.8555C418.061 64.09 425.573 50.229 446.735 50.229ZM446.63 52.0277C439.117 52.0277 437.107 63.9842 439.011 76.4696C439.011 76.6813 439.011 76.7871 439.011 76.9987L442.715 76.5755H442.82C453.507 75.3057 454.883 69.2746 454.565 65.4655C453.93 58.5879 452.132 52.0277 446.63 52.0277Z" fill="white"/>
<path d="M357.494 21.1315L377.28 21.2373H381.83H386.591H400.875H405.108L424.894 21.1315L427.434 44.9385L425.741 45.0443C423.836 27.5858 420.556 22.9302 405.108 22.9302H400.875V82.395V88.8493C400.875 97.9489 403.309 101.441 410.398 101.441V103.134H400.875H381.83H372.307V101.441C380.137 101.441 381.83 97.9489 381.83 88.8493V82.395V22.9302H377.28C361.938 22.9302 358.552 27.5858 356.753 45.0443L355.06 44.9385L357.494 21.1315Z" fill="white"/>
<path d="M365.463 74.7038C365.463 78.9989 363.811 82.7984 360.507 86.1023C357.203 89.4062 352.963 91.5537 347.787 92.5449L340.518 126.575H317.556L329.946 91.0582L326.807 90.067C322.402 88.8555 318.933 87.9745 316.4 87.4238C313.867 86.8732 311.168 86.5979 308.305 86.5979C301.036 86.5979 295.089 87.7542 290.464 90.067H289.803L286.334 83.6243V82.7984C297.677 69.2523 306.543 57.0829 312.93 46.2901C319.318 35.4973 322.512 25.2001 322.512 15.3985C322.512 12.0946 322.071 8.68055 321.19 5.15637C323.503 4.38546 326.256 4 329.45 4C334.406 4 338.261 5.37663 341.014 8.1299C343.767 10.773 345.144 14.1871 345.144 18.372C345.144 23.3279 342.941 29.2199 338.536 36.048C334.241 42.7659 328.899 49.4839 322.512 56.2018C316.234 62.8097 310.067 68.5365 304.01 73.3822L304.175 73.8778C306.157 73.1069 308.47 72.4461 311.113 71.8954C313.867 71.2346 316.455 70.9043 318.878 70.9043C321.631 70.9043 324.935 71.2346 328.789 71.8954C332.644 72.5562 335.067 72.9967 336.058 73.217L349.439 34.7264H360.011L351.917 73.0518C355.771 71.6201 359.24 69.032 362.324 65.2876L362.82 65.618C364.582 68.7017 365.463 71.7302 365.463 74.7038Z" fill="url(#paint0_linear_2068_3692)"/>
<path d="M318.512 15.3984C318.512 12.4523 318.119 9.36482 317.31 6.12695L316.411 2.5332L319.926 1.36133C322.75 0.419851 325.952 0 329.45 0C335.133 2.42036e-05 340.095 1.59141 343.783 5.24414C347.402 8.71851 349.144 13.2143 349.144 18.3721C349.144 24.4451 346.479 31.1153 341.897 38.2168L341.896 38.2158C337.446 45.1752 331.942 52.0871 325.411 58.9561C322.739 61.7686 320.08 64.4286 317.437 66.9375C317.92 66.9154 318.401 66.9043 318.878 66.9043C321.93 66.9043 325.472 67.2687 329.465 67.9531C330.988 68.2143 332.307 68.445 333.412 68.6426L346.595 30.7266H364.944L357.852 64.3018C358.318 63.8146 358.781 63.2978 359.236 62.7451L361.534 59.9541L364.543 61.959L365.038 62.29L365.824 62.8135L366.293 63.6338C368.333 67.204 369.463 70.9106 369.463 74.7041C369.463 80.1584 367.316 84.9493 363.335 88.9307C359.997 92.2682 355.902 94.557 351.168 95.8613L343.754 130.575H311.924L324.799 93.667C320.875 92.5978 317.8 91.8223 315.55 91.333C313.323 90.849 310.912 90.5977 308.305 90.5977C301.421 90.5977 296.144 91.6988 292.253 93.6445L291.408 94.0674H287.414L282.334 84.6328V81.3447L283.268 80.2305C294.523 66.7893 303.246 54.8005 309.488 44.2529C315.611 33.9076 318.512 24.3091 318.512 15.3984ZM322.512 15.3984C322.512 25.2 319.318 35.4973 312.931 46.29L312.324 47.3057C305.986 57.8446 297.323 69.676 286.334 82.7988V83.624L289.803 90.0674H290.464L290.901 89.8535C295.462 87.6831 301.263 86.5977 308.305 86.5977C311.168 86.5977 313.866 86.8732 316.399 87.4238C318.932 87.9745 322.402 88.856 326.807 90.0674L329.945 91.0586L317.556 126.575H340.519L347.787 92.5449C352.801 91.5847 356.937 89.5389 360.194 86.4082L360.507 86.1025C363.708 82.9017 365.358 79.2356 365.458 75.1045L365.463 74.7041C365.463 71.9164 364.688 69.0798 363.14 66.1953L362.819 65.6182L362.324 65.2881C359.241 69.0323 355.771 71.6201 351.917 73.0518L360.012 34.7266H349.438L336.058 73.2168C335.314 73.0516 333.766 72.7625 331.412 72.3496L328.789 71.8955C325.176 71.2761 322.046 70.9469 319.4 70.9082L318.878 70.9043C316.455 70.9043 313.867 71.2347 311.113 71.8955C308.47 72.4462 306.157 73.107 304.175 73.8779L304.01 73.3818C310.067 68.5362 316.234 62.8099 322.512 56.2021C328.899 49.4842 334.241 42.7658 338.536 36.0479C342.803 29.4335 345.003 23.6974 345.137 18.8398L345.144 18.3721C345.144 14.1871 343.767 10.773 341.014 8.12988C338.346 5.46263 334.646 4.0872 329.911 4.00391L329.45 4C326.256 4 323.503 4.38537 321.19 5.15625C322.071 8.6804 322.512 12.0945 322.512 15.3984Z" fill="white"/>
<defs>
<linearGradient id="paint0_linear_2068_3692" x1="326.164" y1="-38.4248" x2="378.559" y2="146.879" gradientUnits="userSpaceOnUse">
<stop stop-color="#DB324D"/>
<stop offset="1" stop-color="#FF31B3"/>
</linearGradient>
</defs>
</svg>
