<svg width="389" height="415" viewBox="0 0 389 415" fill="none" xmlns="http://www.w3.org/2000/svg">
<path d="M74.1273 107.714C86.4168 107.714 89.1478 109.08 98.9014 110.836C104.949 112.201 110.996 114.932 110.996 109.47H114.117L118.799 153.361L115.678 153.556C111.581 136.39 102.998 110.836 77.2484 110.836C55.5955 110.836 39.2094 143.022 37.2587 177.94C36.8686 184.182 37.0636 190.815 37.6488 197.252C40.77 229.829 56.5708 259.48 77.2484 259.48C103.583 259.48 109.63 235.096 115.678 216.564L118.799 216.955L114.117 260.651H110.996C110.996 255.384 104.949 258.115 98.9014 259.48C89.1478 261.236 86.4168 262.406 74.1273 262.406C33.9425 262.406 3.70636 231.78 0.390137 192.376C-6.85447e-06 187.694 -6.85447e-06 183.012 0.390137 177.94C3.70636 138.536 33.9425 107.714 74.1273 107.714Z" fill="url(#paint0_linear_2067_4125)"/>
<path d="M255.086 109.47L291.564 109.665H299.952H308.731H335.065H342.868L379.346 109.47L384.028 153.361L380.907 153.556C377.396 121.369 371.349 112.786 342.868 112.786H335.065V222.417V234.316C335.065 251.092 339.552 257.53 352.622 257.53V260.651H335.065H299.952H282.396V257.53C296.831 257.53 299.952 251.092 299.952 234.316V222.417V112.786H291.564C263.279 112.786 257.036 121.369 253.72 153.556L250.599 153.361L255.086 109.47Z" fill="url(#paint1_linear_2067_4125)"/>
<mask id="path-3-outside-1_2067_4125" maskUnits="userSpaceOnUse" x="115.503" y="70" width="163" height="244" fill="black">
<rect fill="white" x="115.503" y="70" width="163" height="244"/>
<path d="M269.777 209.369C269.777 217.287 266.732 224.292 260.641 230.383C254.549 236.474 246.732 240.434 237.19 242.261L223.789 305H181.456L204.297 239.52L198.511 237.693C190.389 235.459 183.993 233.835 179.324 232.82C174.654 231.805 169.679 231.297 164.4 231.297C151 231.297 140.036 233.429 131.508 237.693H130.29L123.894 225.815V224.292C144.807 199.318 161.152 176.883 172.928 156.985C184.704 137.087 190.592 118.103 190.592 100.032C190.592 93.9413 189.78 87.6471 188.156 81.1499C192.42 79.7286 197.496 79.018 203.384 79.018C212.52 79.018 219.627 81.556 224.703 86.6319C229.779 91.5049 232.317 97.7991 232.317 105.515C232.317 114.651 228.256 125.514 220.134 138.102C212.216 150.488 202.368 162.873 190.592 175.258C179.019 187.441 167.649 197.999 156.482 206.932L156.786 207.846C160.441 206.425 164.705 205.207 169.578 204.191C174.654 202.973 179.425 202.364 183.892 202.364C188.968 202.364 195.059 202.973 202.165 204.191C209.272 205.41 213.739 206.222 215.566 206.628L240.235 135.666H259.727L244.804 206.323C251.91 203.684 258.306 198.912 263.991 192.009L264.904 192.618C268.153 198.303 269.777 203.887 269.777 209.369Z"/>
</mask>
<path d="M269.777 209.369C269.777 217.287 266.732 224.292 260.641 230.383C254.549 236.474 246.732 240.434 237.19 242.261L223.789 305H181.456L204.297 239.52L198.511 237.693C190.389 235.459 183.993 233.835 179.324 232.82C174.654 231.805 169.679 231.297 164.4 231.297C151 231.297 140.036 233.429 131.508 237.693H130.29L123.894 225.815V224.292C144.807 199.318 161.152 176.883 172.928 156.985C184.704 137.087 190.592 118.103 190.592 100.032C190.592 93.9413 189.78 87.6471 188.156 81.1499C192.42 79.7286 197.496 79.018 203.384 79.018C212.52 79.018 219.627 81.556 224.703 86.6319C229.779 91.5049 232.317 97.7991 232.317 105.515C232.317 114.651 228.256 125.514 220.134 138.102C212.216 150.488 202.368 162.873 190.592 175.258C179.019 187.441 167.649 197.999 156.482 206.932L156.786 207.846C160.441 206.425 164.705 205.207 169.578 204.191C174.654 202.973 179.425 202.364 183.892 202.364C188.968 202.364 195.059 202.973 202.165 204.191C209.272 205.41 213.739 206.222 215.566 206.628L240.235 135.666H259.727L244.804 206.323C251.91 203.684 258.306 198.912 263.991 192.009L264.904 192.618C268.153 198.303 269.777 203.887 269.777 209.369Z" fill="url(#paint2_linear_2067_4125)"/>
<path d="M237.19 242.261L235.637 234.155L230.262 235.184L229.118 240.537L237.19 242.261ZM223.789 305V313.253H230.466L231.86 306.724L223.789 305ZM181.456 305L173.663 302.282L169.835 313.253H181.456V305ZM204.297 239.52L212.09 242.238L214.891 234.21L206.783 231.65L204.297 239.52ZM198.511 237.693L200.996 229.823L200.848 229.776L200.699 229.735L198.511 237.693ZM179.324 232.82L181.077 224.755H181.077L179.324 232.82ZM131.508 237.693V245.946H133.456L135.199 245.075L131.508 237.693ZM130.29 237.693L123.023 241.606L125.36 245.946H130.29V237.693ZM123.894 225.815H115.641V227.896L116.627 229.728L123.894 225.815ZM123.894 224.292L117.566 218.993L115.641 221.293V224.292H123.894ZM172.928 156.985L180.03 161.188L172.928 156.985ZM188.156 81.1499L185.546 73.3202L178.295 75.7371L180.149 83.1516L188.156 81.1499ZM224.703 86.6319L218.867 92.4679L218.926 92.5274L218.987 92.5857L224.703 86.6319ZM220.134 138.102L213.199 133.628L213.19 133.642L213.181 133.657L220.134 138.102ZM190.592 175.258L184.611 169.571L184.609 169.574L190.592 175.258ZM156.482 206.932L151.326 200.488L146.832 204.083L148.652 209.542L156.482 206.932ZM156.786 207.846L148.957 210.456L151.698 218.68L159.778 215.538L156.786 207.846ZM169.578 204.191L171.261 212.271L171.383 212.246L171.504 212.217L169.578 204.191ZM202.165 204.191L203.56 196.057H203.56L202.165 204.191ZM215.566 206.628L213.776 214.684L220.949 216.279L223.362 209.338L215.566 206.628ZM240.235 135.666V127.413H234.367L232.44 132.956L240.235 135.666ZM259.727 135.666L267.802 137.371L269.905 127.413H259.727V135.666ZM244.804 206.323L236.728 204.618L233.632 219.277L247.677 214.06L244.804 206.323ZM263.991 192.009L268.569 185.142L262.362 181.004L257.62 186.762L263.991 192.009ZM264.904 192.618L272.07 188.523L271.104 186.832L269.482 185.751L264.904 192.618ZM269.777 209.369H261.524C261.524 214.895 259.498 219.854 254.805 224.547L260.641 230.383L266.477 236.219C273.966 228.73 278.031 219.679 278.031 209.369H269.777ZM260.641 230.383L254.805 224.547C250.028 229.324 243.772 232.597 235.637 234.155L237.19 242.261L238.742 250.367C249.693 248.27 259.071 243.625 266.477 236.219L260.641 230.383ZM237.19 242.261L229.118 240.537L215.718 303.276L223.789 305L231.86 306.724L245.261 243.985L237.19 242.261ZM223.789 305V296.747H181.456V305V313.253H223.789V305ZM181.456 305L189.248 307.718L212.09 242.238L204.297 239.52L196.505 236.802L173.663 302.282L181.456 305ZM204.297 239.52L206.783 231.65L200.996 229.823L198.511 237.693L196.025 245.563L201.812 247.39L204.297 239.52ZM198.511 237.693L200.699 229.735C192.524 227.487 185.962 225.817 181.077 224.755L179.324 232.82L177.57 240.885C182.025 241.853 188.254 243.432 196.322 245.65L198.511 237.693ZM179.324 232.82L181.077 224.755C175.775 223.602 170.208 223.044 164.4 223.044V231.297V239.55C169.15 239.55 173.533 240.007 177.57 240.885L179.324 232.82ZM164.4 231.297V223.044C150.206 223.044 137.859 225.29 127.817 230.311L131.508 237.693L135.199 245.075C142.212 241.568 151.793 239.55 164.4 239.55V231.297ZM131.508 237.693V229.439H130.29V237.693V245.946H131.508V237.693ZM130.29 237.693L137.557 233.78L131.161 221.902L123.894 225.815L116.627 229.728L123.023 241.606L130.29 237.693ZM123.894 225.815H132.147V224.292H123.894H115.641V225.815H123.894ZM123.894 224.292L130.222 229.591C151.316 204.401 167.955 181.592 180.03 161.188L172.928 156.985L165.825 152.781C154.348 172.173 138.298 194.236 117.566 218.993L123.894 224.292ZM172.928 156.985L180.03 161.188C192.353 140.367 198.845 119.941 198.845 100.032H190.592H182.339C182.339 116.265 177.055 133.807 165.825 152.781L172.928 156.985ZM190.592 100.032H198.845C198.845 93.2034 197.935 86.2358 196.163 79.1482L188.156 81.1499L180.149 83.1516C181.626 89.0584 182.339 94.6793 182.339 100.032H190.592ZM188.156 81.1499L190.766 88.9796C193.973 87.9105 198.124 87.2712 203.384 87.2712V79.018V70.7647C196.868 70.7647 190.866 71.5468 185.546 73.3202L188.156 81.1499ZM203.384 79.018V87.2712C210.958 87.2712 215.732 89.3328 218.867 92.4679L224.703 86.6319L230.539 80.796C223.522 73.7791 214.082 70.7647 203.384 70.7647V79.018ZM224.703 86.6319L218.987 92.5857C222.277 95.7435 224.063 99.8063 224.063 105.515H232.317H240.57C240.57 95.7918 237.281 87.2662 230.418 80.6782L224.703 86.6319ZM232.317 105.515H224.063C224.063 112.346 220.957 121.604 213.199 133.628L220.134 138.102L227.07 142.577C235.555 129.424 240.57 116.956 240.57 105.515H232.317ZM220.134 138.102L213.181 133.657C205.587 145.533 196.081 157.508 184.611 169.571L190.592 175.258L196.573 180.945C208.656 168.238 218.844 155.442 227.088 142.548L220.134 138.102ZM190.592 175.258L184.609 169.574C173.25 181.53 162.155 191.825 151.326 200.488L156.482 206.932L161.638 213.377C173.143 204.173 184.788 193.351 196.576 180.943L190.592 175.258ZM156.482 206.932L148.652 209.542L148.957 210.456L156.786 207.846L164.616 205.236L164.311 204.322L156.482 206.932ZM156.786 207.846L159.778 215.538C162.913 214.319 166.721 213.217 171.261 212.271L169.578 204.191L167.894 196.112C162.688 197.196 157.97 198.531 153.795 200.154L156.786 207.846ZM169.578 204.191L171.504 212.217C176.052 211.125 180.172 210.617 183.892 210.617V202.364V194.111C178.678 194.111 173.255 194.821 167.652 196.166L169.578 204.191ZM183.892 202.364V210.617C188.352 210.617 193.95 211.157 200.771 212.326L202.165 204.191L203.56 196.057C196.168 194.79 189.584 194.111 183.892 194.111V202.364ZM202.165 204.191L200.771 212.326C207.946 213.556 212.189 214.332 213.776 214.684L215.566 206.628L217.356 198.571C215.289 198.112 210.597 197.263 203.56 196.057L202.165 204.191ZM215.566 206.628L223.362 209.338L248.031 138.376L240.235 135.666L232.44 132.956L207.77 203.918L215.566 206.628ZM240.235 135.666V143.919H259.727V135.666V127.413H240.235V135.666ZM259.727 135.666L251.652 133.96L236.728 204.618L244.804 206.323L252.879 208.029L267.802 137.371L259.727 135.666ZM244.804 206.323L247.677 214.06C256.376 210.829 263.918 205.08 270.362 197.256L263.991 192.009L257.62 186.762C252.693 192.745 247.444 196.538 241.93 198.586L244.804 206.323ZM263.991 192.009L259.413 198.876L260.326 199.485L264.904 192.618L269.482 185.751L268.569 185.142L263.991 192.009ZM264.904 192.618L257.739 196.713C260.413 201.394 261.524 205.579 261.524 209.369H269.777H278.031C278.031 202.195 275.893 195.213 272.07 188.523L264.904 192.618Z" fill="white" mask="url(#path-3-outside-1_2067_4125)"/>
<defs>
<linearGradient id="paint0_linear_2067_4125" x1="-3.70014" y1="-3.91188" x2="177.378" y2="592.98" gradientUnits="userSpaceOnUse">
<stop stop-color="#FE2240"/>
<stop offset="1" stop-color="#5922FF"/>
</linearGradient>
<linearGradient id="paint1_linear_2067_4125" x1="279.233" y1="-8.52115" x2="358.3" y2="806.09" gradientUnits="userSpaceOnUse">
<stop stop-color="#FE2240"/>
<stop offset="1" stop-color="#5922FF"/>
</linearGradient>
<linearGradient id="paint2_linear_2067_4125" x1="197.003" y1="0" x2="294.54" y2="342.333" gradientUnits="userSpaceOnUse">
<stop stop-color="#DB324D"/>
<stop offset="1" stop-color="#FF31B3"/>
</linearGradient>
</defs>
</svg>
